<svg xmlns="http://www.w3.org/2000/svg" xmlns:xlink="http://www.w3.org/1999/xlink" width="1080" zoomAndPan="magnify" viewBox="0 0 810 809.999993" height="1080" preserveAspectRatio="xMidYMid meet" version="1.0"><defs><clipPath id="b509d32eb1"><path d="M 325 653 L 339 653 L 339 662.414062 L 325 662.414062 Z M 325 653 " clip-rule="nonzero"/></clipPath></defs><path fill="#ffffff" d="M 653.417969 316.855469 C 644.371094 316.855469 635.589844 318.023438 627.230469 320.210938 C 618.601562 253.621094 561.742188 202.179688 492.820312 202.179688 C 466.546875 202.179688 442.039062 209.683594 421.261719 222.617188 C 393.605469 184.335938 348.636719 159.410156 297.808594 159.410156 C 213.726562 159.410156 145.558594 227.605469 145.558594 311.71875 C 145.558594 332.785156 149.839844 352.847656 157.566406 371.097656 C 107.132812 377.902344 68.242188 421.105469 68.242188 473.421875 C 68.242188 530.464844 114.464844 576.703125 171.484375 576.703125 C 186.730469 576.703125 201.195312 573.363281 214.21875 567.425781 C 223.261719 615.238281 265.214844 651.40625 315.628906 651.40625 C 361.847656 651.40625 400.972656 621.027344 414.136719 579.132812 C 431.390625 612.03125 465.851562 634.488281 505.578125 634.488281 C 562.597656 634.488281 608.820312 588.25 608.820312 531.207031 C 608.820312 524.789062 608.207031 518.519531 607.085938 512.410156 C 621.023438 519.433594 636.75 523.402344 653.417969 523.402344 C 710.445312 523.402344 756.667969 477.175781 756.667969 420.125 C 756.667969 363.082031 710.445312 316.855469 653.417969 316.855469 " fill-opacity="1" fill-rule="nonzero"/><path fill="#3882bb" d="M 655.527344 328.714844 C 652.863281 328.394531 653.8125 330.476562 653.417969 330.808594 C 657.78125 330.609375 655.445312 328.1875 655.527344 328.714844 " fill-opacity="1" fill-rule="nonzero"/><path fill="#3882bb" d="M 699.761719 335.945312 L 698.667969 336.253906 C 698.667969 336.253906 699.101562 336.347656 699.734375 336.519531 C 700.363281 336.679688 701.222656 336.90625 702.070312 337.132812 C 703.792969 337.585938 705.527344 338.046875 705.527344 338.046875 L 699.761719 335.945312 " fill-opacity="1" fill-rule="nonzero"/><path fill="#3882bb" d="M 731.640625 364.507812 C 731.722656 363.1875 731.140625 361.746094 730.167969 360.226562 C 729.667969 359.464844 729.113281 358.664062 728.417969 357.898438 C 727.691406 357.171875 726.898438 356.4375 726.078125 355.683594 C 724.410156 354.222656 722.753906 352.601562 721.019531 351.179688 C 719.246094 349.78125 717.628906 348.339844 716.402344 346.804688 L 715.960938 345.34375 C 715.960938 345.34375 714.875 345.265625 713.726562 345.3125 C 712.605469 345.34375 711.492188 345.371094 711.492188 345.371094 C 719.003906 350.554688 728.785156 358.351562 731.640625 364.507812 " fill-opacity="1" fill-rule="nonzero"/><path fill="#3882bb" d="M 735.699219 387.394531 C 736.097656 386.527344 736.757812 387.507812 736.820312 387.613281 C 736.804688 387.554688 736.757812 387.480469 736.378906 386.761719 C 736.199219 386.40625 735.945312 385.894531 735.605469 385.21875 C 735.210938 384.558594 734.71875 383.726562 734.097656 382.691406 C 734.183594 383.191406 734.164062 383.351562 734.183594 383.652344 C 734.570312 384.417969 735.171875 385.445312 735.699219 387.394531 " fill-opacity="1" fill-rule="nonzero"/><path fill="#3882bb" d="M 734.183594 383.652344 C 732.269531 379.929688 734.351562 386.574219 734.183594 383.652344 " fill-opacity="1" fill-rule="nonzero"/><path fill="#3882bb" d="M 740.988281 401.828125 L 738.433594 396.753906 C 737.941406 398.085938 739 402.789062 737.980469 401.175781 C 738.535156 402.46875 738.828125 403.402344 739.09375 403.996094 C 739.367188 404.578125 739.601562 404.824219 739.828125 404.796875 C 740.242188 404.730469 740.636719 403.5625 740.988281 401.828125 " fill-opacity="1" fill-rule="nonzero"/><path fill="#3882bb" d="M 744.277344 406.683594 L 743.34375 403.835938 C 743.089844 404.410156 743.089844 405.183594 744.277344 406.683594 " fill-opacity="1" fill-rule="nonzero"/><path fill="#3882bb" d="M 740.949219 397.992188 C 740.949219 397.992188 741.609375 399.433594 742.257812 400.875 C 742.617188 401.589844 742.851562 402.335938 743.03125 402.902344 C 743.21875 403.46875 743.34375 403.835938 743.34375 403.835938 C 743.738281 402.941406 744.917969 402.589844 742.464844 401.09375 C 743.597656 401.382812 742.316406 400.367188 740.949219 397.992188 " fill-opacity="1" fill-rule="nonzero"/><path fill="#3882bb" d="M 740.601562 394.457031 C 740.648438 392.777344 740.15625 391.015625 740.289062 390.214844 C 740.382812 389.421875 740.910156 389.636719 742.484375 392.191406 C 738.140625 381.910156 736.707031 384.433594 740.601562 394.457031 " fill-opacity="1" fill-rule="nonzero"/><path fill="#3882bb" d="M 735.917969 364.269531 L 733.929688 359.933594 L 730.59375 357.410156 C 732.261719 358.679688 735.203125 365.121094 735.917969 364.269531 " fill-opacity="1" fill-rule="nonzero"/><path fill="#3882bb" d="M 739.5625 436.046875 C 740.234375 436.527344 741.757812 434.554688 742.75 434.273438 L 742.550781 430.058594 C 741.722656 432.105469 740.667969 435.980469 739.5625 436.046875 " fill-opacity="1" fill-rule="nonzero"/><path fill="#3882bb" d="M 742.75 434.273438 C 742.75 434.273438 742.832031 435.875 742.910156 437.480469 C 742.976562 438.289062 742.945312 439.089844 742.898438 439.683594 C 742.863281 440.277344 742.84375 440.683594 742.84375 440.683594 C 743.257812 439.328125 743.503906 438.234375 743.550781 437.335938 C 743.625 436.453125 743.636719 435.792969 743.585938 435.320312 C 743.492188 434.378906 743.171875 434.171875 742.75 434.273438 " fill-opacity="1" fill-rule="nonzero"/><path fill="#3882bb" d="M 748.222656 407.179688 C 748.222656 407.179688 747.167969 404.625 746.113281 402.082031 C 745.671875 400.800781 744.859375 399.621094 744.417969 398.707031 C 743.925781 397.8125 743.597656 397.207031 743.597656 397.207031 C 743.597656 397.207031 743.957031 397.933594 744.492188 399.007812 C 744.765625 399.566406 745.085938 400.195312 745.433594 400.882812 C 745.753906 401.574219 745.992188 402.335938 746.28125 403.089844 C 747.433594 406.164062 748.582031 409.238281 748.582031 409.238281 L 748.222656 407.179688 " fill-opacity="1" fill-rule="nonzero"/><path fill="#3882bb" d="M 732.363281 457.820312 L 732.300781 454.078125 L 731.988281 460.628906 Z M 732.363281 457.820312 " fill-opacity="1" fill-rule="nonzero"/><path fill="#3882bb" d="M 724.875 471.140625 C 725.230469 468.332031 720.898438 472.46875 721.78125 469.867188 C 720.652344 471.519531 719.90625 473.300781 719.136719 474.949219 C 718.296875 476.542969 717.609375 478.15625 716.929688 479.710938 C 717.84375 478.238281 718.925781 476.890625 720.292969 475.570312 C 721.546875 474.140625 722.988281 472.667969 724.875 471.140625 " fill-opacity="1" fill-rule="nonzero"/><path fill="#3882bb" d="M 714.261719 484.640625 C 714.78125 483.933594 715.269531 483.1875 715.734375 482.398438 C 716.121094 481.53125 716.515625 480.632812 716.929688 479.710938 C 716.449219 480.484375 715.996094 481.285156 715.582031 482.132812 C 715.109375 482.933594 714.648438 483.734375 714.261719 484.640625 " fill-opacity="1" fill-rule="nonzero"/><path fill="#3882bb" d="M 739.460938 450.863281 C 738.875 451.175781 737.453125 451.65625 735.84375 454.710938 L 738.574219 453.183594 C 738.847656 452.476562 739.148438 451.675781 739.460938 450.863281 " fill-opacity="1" fill-rule="nonzero"/><path fill="#3882bb" d="M 738.667969 453.128906 L 738.574219 453.183594 C 737.707031 455.730469 736.757812 457.339844 736.398438 458.046875 C 736.691406 457.433594 737.59375 456.050781 738.667969 453.128906 " fill-opacity="1" fill-rule="nonzero"/><path fill="#3882bb" d="M 739.675781 450.28125 L 739.460938 450.863281 C 739.734375 450.703125 739.847656 450.589844 739.675781 450.28125 " fill-opacity="1" fill-rule="nonzero"/><path fill="#3882bb" d="M 747.113281 424.347656 C 747.554688 426.269531 748.15625 429.285156 748.542969 430.871094 C 748.910156 432.445312 749.855469 432.671875 751.050781 428.769531 C 749.789062 425.855469 748.5625 430.210938 747.113281 424.347656 " fill-opacity="1" fill-rule="nonzero"/><path fill="#3882bb" d="M 743.210938 448.167969 L 745.378906 441.617188 C 744.8125 441.625 743.738281 442.625 743.644531 440.703125 L 743.210938 448.167969 " fill-opacity="1" fill-rule="nonzero"/><path fill="#3882bb" d="M 742.664062 451.542969 L 743.210938 448.167969 L 742.15625 450.496094 Z M 742.664062 451.542969 " fill-opacity="1" fill-rule="nonzero"/><path fill="#3882bb" d="M 723.414062 477.816406 C 722.140625 480.464844 720.132812 482.972656 717.722656 485.621094 C 719.265625 484.453125 720.605469 483.019531 722.027344 481.660156 C 723.414062 480.277344 724.84375 478.9375 725.902344 477.355469 C 725.722656 476.515625 725.769531 474.496094 723.414062 477.816406 " fill-opacity="1" fill-rule="nonzero"/><path fill="#3882bb" d="M 731.902344 466.503906 L 731.675781 467.117188 C 732.027344 466.863281 732.242188 466.625 731.902344 466.503906 " fill-opacity="1" fill-rule="nonzero"/><path fill="#3882bb" d="M 688.472656 504.972656 C 688.707031 505.03125 688.914062 505.066406 689.160156 505.125 L 689.140625 504.757812 L 688.472656 504.972656 " fill-opacity="1" fill-rule="nonzero"/><path fill="#3882bb" d="M 726.597656 477.070312 C 728.660156 474.96875 729.3125 473.261719 729.78125 471.585938 C 728.652344 473.433594 727.371094 475.363281 725.902344 477.355469 C 725.984375 477.730469 726.117188 477.890625 726.597656 477.070312 " fill-opacity="1" fill-rule="nonzero"/><path fill="#3882bb" d="M 707.574219 491.550781 C 708.976562 490.964844 710.683594 490.398438 712.152344 489.390625 C 710.71875 489.976562 707.621094 490.757812 707.574219 491.550781 " fill-opacity="1" fill-rule="nonzero"/><path fill="#3882bb" d="M 730.6875 467.644531 L 730.828125 467.230469 C 729.972656 467.796875 730.214844 467.8125 730.6875 467.644531 " fill-opacity="1" fill-rule="nonzero"/><path fill="#3882bb" d="M 730.6875 467.644531 C 730.179688 469.058594 730.007812 470.332031 729.78125 471.585938 C 730.554688 469.980469 731.207031 468.472656 731.675781 467.117188 C 731.367188 467.34375 730.988281 467.53125 730.6875 467.644531 " fill-opacity="1" fill-rule="nonzero"/><path fill="#3882bb" d="M 681.96875 521.148438 C 682 520.132812 683.996094 518.8125 686.746094 517.246094 C 689.507812 515.730469 693.277344 514.664062 696.960938 513.835938 C 702.910156 509.386719 695.511719 505.972656 689.160156 505.125 C 689.273438 505.972656 689.640625 506.640625 683.582031 510.074219 C 684.863281 510.121094 688.6875 509.460938 691.589844 509.027344 C 694.410156 508.433594 696.414062 508.328125 694.070312 510.433594 C 692.0625 511.761719 690.46875 512.316406 689.292969 512.722656 C 688.105469 513.128906 687.285156 513.269531 686.585938 513.308594 C 685.191406 513.34375 684.324219 513.015625 682.027344 513.25 C 684.242188 513.855469 681.648438 515.492188 678.699219 517.257812 C 677.230469 518.152344 675.683594 519.113281 674.675781 520.027344 C 673.660156 520.953125 673.140625 521.667969 673.855469 522.46875 C 673.855469 522.46875 674.382812 522.347656 675.148438 522 C 675.910156 521.6875 676.9375 521.261719 677.957031 520.847656 C 679.992188 520.007812 682.007812 519.171875 682.007812 519.171875 C 682.328125 519.640625 679.472656 521.28125 681.96875 521.148438 " fill-opacity="1" fill-rule="nonzero"/><path fill="#3882bb" d="M 700.523438 499.488281 L 702.738281 497.855469 C 701.316406 498.527344 700.035156 498.988281 698.582031 499.375 C 697.847656 499.5625 697.113281 499.789062 696.238281 499.902344 C 695.371094 499.988281 694.410156 500.082031 693.335938 500.195312 C 689.761719 502.945312 689.167969 504.039062 689.140625 504.757812 C 689.140625 504.757812 692.195312 503.351562 695.246094 501.949219 C 696.011719 501.589844 696.800781 501.277344 697.488281 500.902344 C 698.167969 500.503906 698.808594 500.128906 699.347656 499.816406 C 700.4375 499.175781 701.164062 498.753906 701.164062 498.753906 L 700.523438 499.488281 " fill-opacity="1" fill-rule="nonzero"/><path fill="#3882bb" d="M 712.671875 490.617188 C 712.445312 493.597656 707.375 498.328125 712.113281 497.648438 C 715.535156 495.113281 716.28125 493.699219 716.714844 492.597656 C 717.136719 491.484375 717.183594 490.597656 718.703125 488.609375 C 709.203125 497.949219 720.707031 485.214844 712.898438 490.738281 C 714.554688 488.742188 716.175781 487.128906 717.722656 485.621094 C 715.808594 486.996094 713.941406 488.269531 712.152344 489.390625 L 712.453125 489.289062 L 712.492188 489.25 L 712.5 489.277344 C 713.085938 489.097656 713.320312 489.097656 712.765625 489.402344 L 712.59375 489.617188 C 712.707031 489.902344 712.699219 490.257812 712.671875 490.609375 C 709.484375 492.652344 711.925781 490.644531 712.59375 489.617188 L 712.5 489.277344 L 712.453125 489.289062 C 712.453125 489.289062 711.9375 489.917969 711.058594 490.757812 C 710.15625 491.558594 708.949219 492.632812 707.742188 493.707031 C 706.515625 494.773438 705.359375 495.933594 704.378906 496.660156 C 703.390625 497.386719 702.738281 497.855469 702.738281 497.855469 C 703.359375 497.5625 704.019531 497.226562 704.726562 496.839844 C 705.433594 496.433594 706.113281 495.878906 706.902344 495.292969 C 708.449219 494.066406 710.410156 492.679688 712.671875 490.617188 " fill-opacity="1" fill-rule="nonzero"/><path fill="#3882bb" d="M 754.492188 436.800781 C 754.234375 437.214844 754.09375 437.175781 753.933594 437.1875 C 754.046875 438.140625 754.167969 438.523438 754.492188 436.800781 " fill-opacity="1" fill-rule="nonzero"/><path fill="#3882bb" d="M 752.183594 442.378906 C 752.164062 441.835938 752.011719 441.316406 751.992188 440.53125 C 751.910156 439.742188 751.898438 438.675781 752.265625 437.035156 C 753.3125 434.265625 753.238281 437.207031 753.933594 437.1875 C 753.707031 435.039062 753.527344 429.964844 751.589844 436.046875 L 751.710938 437.074219 C 751.070312 439.84375 749.355469 442.777344 748.015625 444.859375 C 746.6875 446.953125 745.632812 448.207031 745.605469 447.707031 C 747.789062 446.679688 749.429688 445.660156 752.183594 442.378906 " fill-opacity="1" fill-rule="nonzero"/><path fill="#3882bb" d="M 736.199219 470.953125 C 736.199219 470.953125 735.878906 471.59375 735.410156 472.566406 C 734.917969 473.535156 734.335938 474.863281 733.523438 476.042969 C 731.996094 478.503906 730.488281 480.964844 730.488281 480.964844 L 735.484375 477.289062 L 734.410156 476.910156 C 735.53125 475.675781 736.105469 474.667969 736.453125 473.921875 C 736.8125 473.1875 736.925781 472.707031 736.90625 472.367188 C 736.878906 471.679688 736.332031 471.519531 736.199219 470.953125 " fill-opacity="1" fill-rule="nonzero"/><path fill="#3882bb" d="M 686.9375 504.425781 L 687.425781 501.929688 L 682.769531 506.914062 Z M 686.9375 504.425781 " fill-opacity="1" fill-rule="nonzero"/><path fill="#3882bb" d="M 673.800781 508.792969 L 673.855469 506.800781 C 673.855469 506.800781 673.046875 507.3125 672.234375 507.820312 C 671.832031 508.085938 671.425781 508.339844 671.105469 508.472656 C 670.785156 508.621094 670.578125 508.726562 670.578125 508.726562 C 670.578125 508.726562 670.785156 508.753906 671.085938 508.78125 C 671.386719 508.808594 671.792969 508.847656 672.1875 508.820312 C 673 508.800781 673.800781 508.792969 673.800781 508.792969 " fill-opacity="1" fill-rule="nonzero"/><path fill="#3882bb" d="M 67.660156 424.78125 C 67.660156 424.78125 67.933594 423.808594 68.214844 422.839844 C 68.5625 421.90625 68.914062 420.972656 68.914062 420.972656 C 68.113281 422.679688 67.839844 423.894531 67.660156 424.78125 " fill-opacity="1" fill-rule="nonzero"/><path fill="#3882bb" d="M 58.667969 451.96875 L 59.480469 452.835938 C 59.179688 451.441406 58.988281 450.835938 58.667969 451.96875 " fill-opacity="1" fill-rule="nonzero"/><path fill="#3882bb" d="M 396.855469 588.9375 C 396.222656 589.824219 395.582031 590.726562 394.941406 591.632812 C 394.179688 592.414062 393.425781 593.199219 392.691406 593.960938 C 391.25 595.421875 389.515625 597.46875 389.007812 597.601562 C 387.535156 598.703125 386.792969 599.503906 387.800781 599.910156 C 387.800781 599.910156 388.441406 599.949219 389.042969 599.957031 C 389.664062 599.964844 390.277344 599.964844 390.277344 599.964844 C 390.664062 599.210938 390.964844 598.664062 391.417969 597.902344 C 392.097656 596.734375 392.765625 595.640625 393.425781 594.628906 C 394.074219 593.59375 394.746094 592.707031 395.308594 591.765625 C 395.835938 590.746094 396.355469 589.8125 396.855469 588.9375 " fill-opacity="1" fill-rule="nonzero"/><path fill="#3882bb" d="M 200.976562 572.769531 C 201.429688 572.855469 201.902344 572.949219 202.371094 573.042969 C 202.992188 572.496094 203.597656 571.96875 204.171875 571.46875 C 204.792969 570.867188 205.386719 570.292969 205.941406 569.734375 C 204.398438 570.894531 202.644531 571.808594 200.976562 572.769531 " fill-opacity="1" fill-rule="nonzero"/><path fill="#3882bb" d="M 199.347656 582.207031 L 199.1875 582.1875 C 199.082031 582.1875 198.96875 582.167969 198.554688 582.207031 C 197.859375 582.273438 196.925781 582.347656 195.984375 582.433594 C 195.058594 582.515625 194.097656 582.433594 193.390625 582.453125 C 192.683594 582.433594 192.222656 582.421875 192.222656 582.421875 C 193.082031 582.527344 194.125 582.582031 195.371094 582.601562 C 195.992188 582.574219 196.660156 582.488281 197.378906 582.414062 C 198.039062 582.347656 199.101562 582.167969 199.347656 582.207031 " fill-opacity="1" fill-rule="nonzero"/><path fill="#3882bb" d="M 133.761719 336.679688 L 131.066406 332.445312 C 131.992188 339.574219 132.652344 336.273438 133.761719 336.679688 " fill-opacity="1" fill-rule="nonzero"/><path fill="#3882bb" d="M 576.382812 589.625 C 573.019531 592 570.816406 594.195312 568.734375 596.007812 C 572.886719 593.527344 576.828125 591.644531 576.382812 589.625 " fill-opacity="1" fill-rule="nonzero"/><path fill="#3882bb" d="M 84.339844 442.625 C 84.601562 440.644531 84.453125 439.683594 84.027344 439.582031 C 83.6875 441.636719 83.734375 442.851562 84.339844 442.625 " fill-opacity="1" fill-rule="nonzero"/><path fill="#3882bb" d="M 560.101562 603.359375 C 560.78125 603.113281 561.390625 602.792969 562.070312 602.503906 C 563.164062 601.558594 564.117188 600.4375 565.160156 599.335938 C 566.226562 598.230469 567.375 597.128906 568.734375 596.007812 C 565.453125 597.667969 562.417969 600.0625 560.101562 603.359375 " fill-opacity="1" fill-rule="nonzero"/><path fill="#3882bb" d="M 524.699219 193.820312 C 525.074219 193.996094 525.539062 194.15625 525.867188 194.355469 C 526.046875 194.101562 525.507812 193.960938 524.699219 193.820312 " fill-opacity="1" fill-rule="nonzero"/><path fill="#3882bb" d="M 615.027344 306.042969 C 614.539062 304.75 613.953125 302.601562 613.378906 300.585938 C 613.5 301.621094 613.964844 303.261719 615.027344 306.042969 " fill-opacity="1" fill-rule="nonzero"/><path fill="#3882bb" d="M 603.777344 496.3125 C 609.5625 498.816406 604.539062 496.40625 603.777344 496.3125 " fill-opacity="1" fill-rule="nonzero"/><path fill="#3882bb" d="M 630.511719 515.816406 C 629.566406 515.871094 628.917969 515.925781 628.777344 516.410156 C 629.144531 515.984375 629.726562 515.851562 630.511719 515.816406 " fill-opacity="1" fill-rule="nonzero"/><path fill="#3882bb" d="M 538.605469 629.332031 L 538.324219 629.425781 C 539.398438 629.460938 539.210938 629.453125 538.605469 629.332031 " fill-opacity="1" fill-rule="nonzero"/><path fill="#3882bb" d="M 613.070312 501.570312 C 610.824219 500.316406 608.195312 498.855469 605.351562 497.402344 C 606.671875 498.167969 609.074219 499.535156 613.070312 501.570312 " fill-opacity="1" fill-rule="nonzero"/><path fill="#3882bb" d="M 611.402344 499.75 C 613.445312 500.75 615.058594 501.542969 616.59375 502.289062 C 617.214844 502.203125 616.441406 501.617188 611.402344 499.75 " fill-opacity="1" fill-rule="nonzero"/><path fill="#3882bb" d="M 595.964844 492.8125 C 597.539062 493.53125 599.066406 494.273438 600.628906 495.039062 C 602.242188 495.839844 603.816406 496.632812 605.351562 497.402344 C 604.105469 496.679688 603.53125 496.28125 603.777344 496.3125 C 602.0625 495.566406 599.667969 494.519531 595.964844 492.8125 " fill-opacity="1" fill-rule="nonzero"/><path fill="#3882bb" d="M 271.972656 155.1875 C 272.214844 155.226562 272.480469 155.214844 272.742188 155.253906 C 276.089844 153.894531 274.5625 154.179688 271.972656 155.1875 " fill-opacity="1" fill-rule="nonzero"/><path fill="#3882bb" d="M 338.707031 658.683594 L 339.101562 658.496094 L 338.554688 658.535156 Z M 338.707031 658.683594 " fill-opacity="1" fill-rule="nonzero"/><g clip-path="url(#b509d32eb1)"><path fill="#3882bb" d="M 325.871094 662.21875 C 331.234375 658.941406 334.285156 658.96875 338.554688 658.535156 C 338.554688 658.535156 337.214844 657.269531 335.878906 656.007812 C 334.597656 654.726562 333.304688 653.453125 333.304688 653.453125 C 333.304688 653.453125 331.609375 655.628906 329.742188 657.828125 C 327.886719 660.015625 325.871094 662.21875 325.871094 662.21875 " fill-opacity="1" fill-rule="nonzero"/></g><path fill="#3882bb" d="M 307.929688 169.121094 C 307.929688 169.121094 307.429688 168.921875 306.929688 168.722656 C 306.421875 168.527344 305.902344 168.375 305.902344 168.375 C 310.632812 168.035156 309.269531 168.601562 307.929688 169.121094 Z M 598.046875 524.15625 C 597.492188 522.054688 597.164062 521.953125 596.917969 522.609375 C 597.285156 523.460938 597.699219 525.023438 597.867188 526.863281 C 597.917969 528.617188 597.878906 530.738281 597.773438 533.007812 C 598.085938 532.433594 598.347656 531.613281 598.480469 530.285156 C 598.558594 528.90625 598.773438 527.210938 598.046875 524.15625 Z M 597.125 539.957031 L 597.21875 540.203125 C 595.636719 544.894531 596.296875 543.246094 597.125 539.957031 Z M 211.636719 576.957031 C 211.097656 576.652344 210.832031 575.703125 210.722656 574.136719 C 210.136719 574.195312 209.515625 574.175781 208.828125 574.109375 C 209.628906 573.714844 210.449219 573.34375 211.257812 573.089844 C 211.457031 574.183594 211.605469 575.503906 211.636719 576.957031 Z M 59.667969 494.273438 C 58.8125 491.730469 56.40625 486.527344 57.613281 484.414062 C 60.59375 487.1875 59.753906 489.570312 59.667969 494.273438 Z M 112.824219 374.246094 C 112.824219 374.246094 110.554688 375.066406 108.28125 375.886719 C 107.113281 376.261719 106.050781 376.816406 105.210938 377.1875 C 104.390625 377.5625 103.835938 377.828125 103.835938 377.828125 C 111.628906 368.683594 120.136719 365.628906 110.695312 367.882812 C 111.203125 369.484375 109.441406 371.53125 106.613281 373.8125 C 105.191406 374.953125 103.644531 376.355469 101.882812 377.714844 C 100.1875 379.136719 98.210938 380.410156 96.511719 382.03125 C 89.324219 388.082031 83.253906 395.332031 85.261719 397.878906 L 80.296875 401.828125 C 81.464844 400.480469 81.351562 400.007812 82.511719 398.667969 C 79.996094 400.535156 78.589844 402.128906 77.769531 403.609375 C 76.96875 405.097656 76.875 406.558594 76.707031 408.066406 C 76.449219 411.160156 76.007812 414.441406 72.097656 420.925781 C 71.363281 422.027344 70.597656 423.019531 69.996094 423.886719 C 69.421875 424.753906 68.902344 425.449219 68.496094 425.894531 C 67.667969 426.769531 67.273438 426.628906 67.660156 424.78125 C 67.660156 424.78125 66.832031 427.683594 65.992188 430.589844 C 65.546875 432.019531 65.226562 433.492188 65.050781 434.605469 C 64.832031 435.714844 64.699219 436.453125 64.699219 436.453125 C 63.476562 439.683594 62.65625 438.542969 63.878906 435.28125 C 63.878906 435.28125 63.550781 436.386719 63.0625 438.015625 C 62.609375 439.675781 61.789062 441.816406 61.410156 444.066406 C 60.960938 446.300781 60.496094 448.535156 60.148438 450.203125 C 59.980469 451.042969 59.839844 451.742188 59.742188 452.222656 C 59.679688 452.710938 59.640625 452.996094 59.640625 452.996094 L 59.480469 452.835938 C 60.160156 455.617188 60.78125 461.535156 61.308594 464.355469 C 60.148438 468.785156 60.722656 462.035156 59.855469 463.121094 L 60.988281 473.027344 C 60.195312 475.015625 59.214844 474.007812 58.765625 471.574219 C 58.3125 469.160156 58.027344 465.304688 58.480469 461.855469 C 54.824219 466.25 55.25 468.558594 55.816406 472.035156 C 56.03125 473.789062 56.757812 475.875 56.972656 478.785156 C 57.113281 480.238281 57.179688 481.90625 57.132812 483.867188 C 57.03125 485.835938 57.238281 488.054688 57.097656 490.683594 C 57.097656 490.683594 56.53125 488.308594 55.976562 485.941406 C 55.683594 484.746094 55.597656 483.539062 55.4375 482.632812 C 55.316406 481.726562 55.238281 481.125 55.238281 481.125 C 54.417969 482.746094 53.796875 484.480469 53.609375 486.308594 C 53.441406 488.136719 53.476562 490.078125 53.589844 492.171875 C 53.75 494.246094 53.761719 496.527344 54.128906 498.929688 C 54.476562 501.355469 54.777344 503.972656 54.949219 506.90625 C 55.238281 505.40625 55.023438 499.542969 55.878906 495.507812 C 56.777344 491.4375 58.027344 489.289062 59.667969 494.539062 C 59.601562 496.121094 59.894531 497.894531 60.480469 499.957031 C 61.042969 502.03125 61.929688 504.398438 63.304688 507.046875 C 62.195312 507.414062 62.277344 508.921875 62.964844 511.195312 C 63.304688 512.335938 63.804688 513.664062 64.378906 515.117188 C 64.964844 516.578125 65.546875 518.207031 66.425781 519.8125 L 63.390625 520.601562 C 65.53125 524.0625 66.886719 525.457031 68.113281 526.417969 C 69.355469 527.382812 70.363281 527.984375 72.203125 529.585938 C 74.320312 533.386719 75.132812 535.996094 75.339844 538.042969 C 75.660156 540.023438 75.375 541.445312 75.1875 542.886719 C 79.34375 548.863281 78.589844 546.234375 78.175781 543.867188 C 77.761719 541.484375 77.714844 539.390625 82.898438 545.808594 C 84.546875 548.214844 86.308594 550.277344 88.042969 552.238281 C 88.9375 553.199219 89.773438 554.199219 90.753906 555.039062 C 91.746094 555.878906 92.753906 556.699219 93.789062 557.507812 C 94.816406 558.320312 95.882812 559.109375 96.992188 559.921875 C 98.085938 560.722656 99.207031 561.550781 100.507812 562.242188 C 103.042969 563.683594 105.746094 565.210938 108.773438 566.832031 C 115.046875 571.921875 106.53125 567.671875 108.507812 569.914062 L 115.925781 571.546875 C 117.386719 572.507812 116.546875 572.875 116.113281 573.054688 C 121.871094 575.03125 118.035156 570.648438 126.6875 573.929688 C 128.429688 573.054688 132.28125 575.722656 137.445312 578.871094 C 142.65625 581.660156 149.453125 584.621094 155.484375 583.355469 C 158.175781 584.65625 153.851562 585.023438 154.53125 586.335938 C 156.566406 586.324219 158.308594 586.316406 159.828125 586.308594 C 161.34375 586.164062 162.636719 586.035156 163.773438 585.929688 C 166.027344 585.703125 167.648438 585.523438 169.175781 585.308594 C 169.9375 585.195312 170.671875 585.082031 171.453125 584.960938 C 172.226562 584.734375 173.046875 584.507812 173.972656 584.242188 C 175.800781 583.695312 178.050781 582.980469 181.152344 581.953125 C 181.152344 581.953125 181.828125 582.035156 182.867188 582.167969 C 183.902344 582.308594 185.257812 582.261719 186.644531 582.320312 C 189.433594 582.375 192.222656 582.421875 192.222656 582.421875 C 188.019531 581.953125 188.433594 580.59375 190.789062 578.933594 C 191.949219 578.039062 193.65625 577.332031 195.445312 576.136719 C 197.320312 574.976562 198.953125 573.921875 200.976562 572.769531 C 198.453125 572.300781 195.699219 572.054688 194.25 571.96875 C 194.25 571.96875 197.6875 570.535156 201.148438 569.113281 C 203.003906 568.339844 204.925781 567.59375 206.347656 566.792969 C 207.808594 566.050781 208.769531 565.558594 208.769531 565.558594 C 210.449219 565.4375 208.382812 567.398438 205.941406 569.734375 C 206.941406 569.046875 207.882812 568.40625 208.621094 567.898438 C 210.851562 567.605469 210.9375 568.394531 210.164062 569.519531 C 209.363281 570.648438 207.707031 572.203125 206.121094 573.703125 C 205.019531 573.515625 203.804688 573.375 202.371094 573.042969 C 199.1875 575.863281 197.585938 578.464844 198.527344 580.074219 C 198.980469 579.585938 200.035156 578.972656 201.269531 578.453125 C 200.695312 579.144531 200.410156 579.691406 200.683594 579.933594 C 200.988281 580.1875 201.722656 579.273438 203.285156 578.03125 C 203.285156 578.03125 203.652344 578.765625 203.890625 579.558594 C 204.125 580.339844 204.21875 581.179688 204.21875 581.179688 L 204.992188 579.472656 C 206.121094 579.332031 207.160156 579.207031 208.289062 578.773438 C 208.382812 581.226562 208.308594 583.421875 208.335938 585.28125 C 208.910156 585.617188 209.523438 586.035156 210.191406 586.542969 C 210.53125 586.808594 210.871094 587.089844 211.238281 587.402344 L 211.511719 587.636719 L 212.757812 589.164062 C 213.859375 590.492188 214.96875 591.839844 216.109375 593.21875 C 216.667969 593.886719 217.230469 594.574219 217.796875 595.261719 C 218.410156 595.921875 219.042969 596.589844 219.683594 597.269531 C 220.933594 598.617188 222.199219 600.011719 223.46875 601.472656 C 224.722656 602.925781 226.242188 604.300781 227.636719 605.839844 C 230.378906 608.96875 233.703125 612.0625 237.097656 615.738281 C 232.007812 613.476562 233.234375 617.527344 230.78125 619.289062 C 230.492188 617.621094 229.660156 616.058594 228.464844 614.472656 C 227.878906 613.683594 227.191406 612.890625 226.429688 612.078125 C 225.722656 611.230469 224.976562 610.34375 224.207031 609.429688 C 222.667969 607.59375 220.785156 605.734375 219.285156 603.519531 C 217.777344 601.3125 216.308594 598.9375 215.160156 596.394531 C 217.582031 601.691406 215.761719 601.25 214.585938 600.136719 C 214.585938 600.136719 215.347656 601.171875 216.476562 602.71875 C 217.054688 603.492188 217.710938 604.386719 218.417969 605.339844 C 219.171875 606.273438 220.03125 607.214844 220.859375 608.175781 C 222.554688 610.070312 224.148438 612.003906 225.476562 613.34375 C 226.835938 614.644531 227.738281 615.511719 227.738281 615.511719 C 226.628906 616.078125 226.917969 617.199219 227.804688 618.78125 C 228.246094 619.574219 228.832031 620.480469 229.472656 621.476562 C 230.179688 622.429688 230.933594 623.476562 231.648438 624.617188 C 232.128906 621.507812 235.15625 623.824219 239.066406 627.164062 C 241.101562 628.753906 243.316406 630.6875 245.492188 632.441406 C 247.792969 634.042969 249.996094 635.515625 251.785156 636.417969 C 251.503906 637.21875 250.75 637.683594 249.101562 637.125 C 248.273438 636.851562 247.214844 636.316406 245.898438 635.46875 C 245.238281 635.035156 244.503906 634.535156 243.710938 633.902344 C 242.964844 633.242188 242.15625 632.480469 241.269531 631.601562 C 241.988281 632.855469 242.730469 633.910156 243.558594 634.75 C 244.410156 635.53125 245.292969 636.15625 246.199219 636.644531 C 247.988281 637.625 249.828125 638.117188 251.636719 638.570312 C 253.484375 638.972656 255.375 639.21875 257.195312 639.953125 C 259.050781 640.640625 260.765625 641.914062 262.746094 643.742188 C 260.605469 642.714844 259.703125 641.753906 258.476562 641.960938 C 259.164062 642.179688 259.910156 642.519531 260.730469 642.886719 C 261.578125 643.214844 262.464844 643.613281 263.367188 644.046875 C 265.15625 644.914062 267.003906 645.929688 268.570312 646.921875 C 271.792969 648.664062 273.988281 650.230469 272.226562 650.265625 L 270 649.363281 C 277.078125 653.085938 288.894531 656.753906 299.308594 657.648438 C 301.910156 657.816406 304.40625 658.101562 306.703125 657.996094 C 309.011719 657.882812 311.113281 657.714844 312.914062 657.488281 C 316.515625 657.121094 318.90625 655.980469 319.445312 655 C 319.632812 655.519531 317.550781 660.023438 316.550781 660.898438 C 316.550781 660.898438 318.3125 659.957031 320.960938 658.5625 C 322.253906 657.828125 323.75 657.09375 325.296875 656.101562 C 326.804688 655.101562 328.414062 654.039062 330.027344 652.972656 C 333.183594 650.964844 336.058594 648.390625 338.148438 646.695312 C 340.261719 644.996094 341.511719 643.628906 341.511719 643.628906 C 340.890625 645.65625 343.199219 648.078125 344.378906 650.644531 C 344.945312 651.925781 345.214844 653.253906 344.558594 654.613281 C 344.226562 655.292969 343.671875 655.988281 342.796875 656.675781 C 341.910156 657.300781 340.703125 657.910156 339.101562 658.496094 C 341.042969 658.335938 343.246094 658.234375 345.847656 657.460938 C 348.449219 656.714844 351.605469 655.800781 355.15625 653.660156 C 353.828125 653.886719 351.878906 653.285156 350.691406 652.378906 C 349.476562 651.40625 349.0625 650.332031 350.617188 649.589844 C 355.667969 649.75 357.503906 649.652344 359.464844 649.316406 C 361.453125 648.863281 363.714844 648.363281 369.765625 647.003906 C 366.011719 648.289062 367.199219 641.234375 372.289062 638.492188 C 371.921875 639.660156 375.644531 642.847656 373.976562 644.488281 C 373.976562 644.488281 374.664062 643.734375 375.597656 642.519531 C 376.492188 641.292969 377.699219 639.644531 378.894531 638.003906 C 379.46875 637.191406 380.042969 636.382812 380.589844 635.628906 C 381.082031 634.824219 381.535156 634.082031 381.929688 633.441406 C 382.691406 632.167969 383.203125 631.320312 383.203125 631.320312 C 380.941406 634.402344 385.511719 635.371094 389.25 634.308594 C 388.75 634.363281 389.195312 633.882812 390.109375 633.027344 C 390.976562 632.140625 392.359375 630.886719 393.867188 629.519531 C 394.621094 628.832031 395.414062 628.113281 396.195312 627.40625 C 396.949219 626.652344 397.65625 625.878906 398.324219 625.164062 C 399.664062 623.710938 400.804688 622.421875 401.386719 621.5625 L 396.054688 625.570312 C 402.332031 619.5 403.320312 614.71875 404.167969 610.289062 C 404.335938 609.15625 404.515625 608.035156 404.695312 606.847656 C 404.769531 605.875 404.941406 604.8125 405.269531 603.644531 C 405.863281 601.285156 406.929688 598.308594 408.738281 595.066406 C 408.617188 596.574219 409 599.277344 409.953125 600.957031 C 410.90625 602.625 412.207031 603.605469 413.175781 602.125 C 413.074219 600.664062 412.976562 598.070312 413.089844 594.234375 C 413.136719 590.425781 413.410156 585.101562 414.164062 579.132812 C 415.164062 577.765625 416.53125 577.472656 418.734375 578.578125 C 420.902344 579.699219 423.617188 582.28125 426.519531 585.722656 L 427.980469 590.792969 C 427.980469 590.792969 430.496094 593.152344 433.03125 595.515625 C 433.726562 596.167969 434.207031 596.6875 435.085938 597.441406 C 435.6875 597.902344 436.074219 598.148438 436.488281 598.449219 C 437.28125 598.996094 437.796875 599.363281 437.796875 599.363281 C 436.988281 599.191406 436.027344 598.976562 434.953125 598.675781 C 434.660156 598.582031 434.445312 598.582031 434.066406 598.402344 C 433.71875 598.222656 433.359375 598.042969 432.992188 597.863281 C 432.351562 597.554688 431.683594 597.242188 430.996094 596.910156 C 428.300781 595.707031 425.546875 594.707031 423.382812 594.074219 C 421.109375 593.433594 419.421875 593.074219 418.113281 593.226562 C 416.804688 593.347656 416.078125 593.839844 415.503906 594.535156 C 415.203125 596.460938 415.078125 598.070312 414.976562 599.277344 C 415.691406 598.976562 415.777344 599.84375 415.984375 600.078125 C 416.191406 600.816406 416.464844 601.445312 417.273438 602.757812 C 417.539062 604.285156 417.371094 604.800781 417.144531 605.027344 C 416.917969 605.246094 416.625 605.140625 416.410156 604.972656 L 416.296875 605.433594 L 416.4375 605.199219 C 417.359375 607.367188 418.21875 609.214844 419.027344 610.695312 C 419.554688 608.847656 420.6875 608.949219 422.289062 609.636719 C 422.617188 609.863281 422.230469 609.347656 422.917969 609.902344 C 423.382812 610.222656 423.824219 610.542969 424.25 610.84375 C 425.117188 611.449219 425.933594 611.976562 426.652344 612.390625 C 428.074219 613.230469 429.140625 613.539062 429.449219 612.882812 C 429.449219 612.882812 429.121094 612.671875 428.582031 612.25 C 428.046875 611.84375 427.273438 611.25 426.339844 610.550781 C 425.878906 610.195312 425.378906 609.808594 424.84375 609.402344 C 424.578125 609.195312 424.304688 608.988281 424.023438 608.769531 L 423.625 608.480469 L 423.578125 608.527344 C 423.015625 608.175781 422.4375 607.835938 421.902344 607.535156 C 419.707031 606.28125 418.445312 605.734375 418.445312 605.734375 C 418.539062 604.546875 418.820312 603.386719 419.460938 602.699219 C 420.121094 601.972656 421.1875 601.71875 422.65625 602.199219 C 423.390625 602.4375 424.304688 602.785156 425.257812 603.320312 C 425.746094 603.59375 426.246094 603.90625 426.765625 604.246094 C 427.027344 604.40625 427.320312 604.652344 427.519531 604.726562 C 427.792969 604.90625 428.207031 605.21875 428.546875 605.472656 C 429.976562 606.527344 431.402344 607.675781 432.796875 608.914062 C 434.273438 610.054688 435.714844 611.277344 437.101562 612.597656 C 439.269531 616.199219 431.15625 615.058594 430.617188 616.019531 C 431.769531 616.3125 434.980469 618.472656 438.175781 620.429688 C 441.257812 622.550781 444.433594 624.351562 444.808594 625.144531 C 444.808594 625.144531 443.140625 624.550781 441.472656 623.964844 C 439.777344 623.410156 438.167969 622.664062 438.167969 622.664062 C 439.757812 624.335938 441.625 625.296875 443.425781 626.183594 C 445.222656 627.050781 447.082031 627.660156 449.003906 628.238281 C 452.789062 629.519531 456.617188 630.792969 460.914062 634.421875 C 462.601562 635.203125 464.777344 637.257812 466.8125 638.851562 C 468.867188 640.339844 470.695312 641.480469 471.296875 640.671875 C 466.40625 635.175781 469.855469 624.222656 474.019531 622.695312 C 474.53125 622.9375 478.1875 625.257812 482.464844 627.324219 C 484.566406 628.480469 486.847656 629.40625 488.804688 630.347656 C 490.765625 631.320312 492.433594 632.054688 493.347656 632.59375 C 495.96875 634.335938 493.734375 635.835938 491.199219 637.25 C 488.710938 638.617188 485.949219 639.710938 488.296875 641.414062 C 488.664062 640.640625 492.113281 639.964844 493.507812 639.726562 C 495.363281 640.304688 494.902344 640.945312 495.015625 641.507812 C 495.082031 641.792969 495.28125 642.039062 495.996094 642.253906 C 496.710938 642.5 497.945312 642.667969 500.058594 642.613281 C 500.453125 641.800781 501.707031 641.453125 503.15625 641.320312 C 504.617188 641.226562 506.277344 641.292969 507.492188 641.226562 C 509.953125 641.152344 510.527344 641.433594 504.089844 639.972656 C 508.113281 639.550781 510.226562 639.4375 512.5625 639.644531 C 513.71875 639.71875 514.9375 639.8125 516.453125 639.851562 C 517.960938 639.792969 519.769531 639.558594 522.117188 639.179688 C 520.457031 638.359375 522.332031 636.238281 525.359375 634.089844 C 526.894531 633.121094 528.628906 631.660156 530.464844 630.585938 C 532.273438 629.445312 534.167969 628.480469 535.894531 627.738281 C 535.722656 628.699219 537.65625 629.140625 538.605469 629.332031 C 546.097656 626.945312 551.742188 624.65625 557.160156 622.128906 C 559.789062 620.722656 562.503906 619.46875 565.160156 617.800781 C 567.742188 616 570.570312 614.199219 573.425781 611.804688 C 574.933594 611.515625 581.011719 607.289062 579.671875 610.421875 C 580.292969 609.460938 580.777344 608.441406 581.527344 607.273438 C 582.199219 606.019531 583.101562 604.574219 584.640625 602.824219 C 592.894531 597.957031 577.882812 610.910156 585.042969 608.109375 C 584.5625 607.214844 586.175781 604.472656 588.304688 601.265625 C 590.378906 597.996094 592.582031 593.933594 594.117188 590.964844 C 592.28125 590.964844 589.914062 593.886719 587.597656 597.617188 C 586.417969 599.464844 584.996094 601.3125 583.800781 603.210938 C 582.539062 605.046875 581.5 606.953125 580.40625 608.222656 C 579.683594 607.488281 579.539062 606.320312 579.71875 604.671875 C 579.890625 603 580.4375 600.945312 581.320312 598.628906 C 581.753906 597.46875 582.28125 596.253906 582.875 594.980469 C 583.375 593.632812 583.941406 592.21875 584.5625 590.765625 C 585.195312 589.324219 585.882812 587.835938 586.644531 586.316406 C 587.324219 584.742188 587.957031 583.082031 588.699219 581.425781 C 591.320312 576.351562 592.175781 575.417969 592.894531 575.710938 C 593.5625 575.976562 593.742188 577.359375 593.921875 576.316406 C 595.191406 573.882812 596.171875 571.742188 596.9375 569.847656 C 597.511719 567.878906 597.886719 566.164062 598.132812 564.625 C 598.378906 563.097656 598.5 561.769531 598.546875 560.554688 C 598.558594 559.320312 598.386719 558.167969 598.292969 557.085938 C 598.078125 554.90625 597.898438 552.910156 598.21875 550.4375 C 598.300781 547.929688 598.820312 544.960938 600.1875 540.730469 C 600.914062 539.0625 601.601562 538.203125 602.25 537.863281 C 602.902344 537.429688 603.523438 537.683594 604.105469 538.042969 C 605.265625 538.738281 606.3125 540.183594 607.273438 539.4375 C 607.507812 541.917969 607.027344 544.058594 606.660156 545.988281 C 606.265625 547.929688 605.765625 549.648438 605.257812 551.25 C 604.003906 554.417969 602.597656 557.066406 601.855469 560.25 L 605.058594 552.71875 C 605.085938 555.867188 604.285156 562.5625 602.117188 565.605469 C 602.636719 564.992188 603.238281 563.984375 603.910156 562.675781 C 604.578125 561.363281 605.039062 559.65625 605.660156 557.746094 C 606.21875 555.820312 606.953125 553.679688 607.433594 551.316406 C 607.828125 548.929688 608.242188 546.386719 608.675781 543.753906 C 608.78125 543.085938 608.882812 542.425781 608.988281 541.757812 C 609.035156 541.070312 609.074219 540.390625 609.109375 539.710938 C 609.1875 538.371094 609.269531 537.035156 609.355469 535.6875 L 609.609375 531.71875 C 609.582031 530.40625 609.554688 529.105469 609.523438 527.824219 C 609.429688 525.269531 609.5625 522.800781 609.269531 520.585938 C 609.1875 519.5 609.101562 518.445312 609.035156 517.425781 C 609.007812 516.9375 608.980469 516.464844 608.960938 515.992188 L 608.941406 515.324219 C 608.96875 515.164062 608.78125 514.703125 609.167969 515.011719 C 609.714844 515.332031 610.230469 515.625 610.722656 515.917969 C 611.578125 515.878906 612.964844 516.21875 613.925781 516.097656 C 614.878906 516.050781 615.246094 515.644531 613.585938 514.363281 C 613.585938 514.363281 612.265625 513.976562 611.042969 513.496094 C 609.828125 513.023438 608.609375 512.554688 608.609375 512.554688 C 604.945312 509.6875 606.519531 509.621094 608.554688 509.921875 C 610.496094 510.175781 612.878906 510.628906 608.1875 508.085938 C 610.089844 508.488281 612.15625 508.894531 614.480469 509.46875 C 616.820312 509.949219 619.4375 510.601562 622.3125 511.421875 C 625.148438 511.921875 628.144531 512.796875 631.5 513.542969 C 632.160156 513.683594 632.820312 513.816406 633.488281 513.957031 C 634.035156 514.089844 634.601562 514.222656 635.164062 514.351562 C 636.296875 514.636719 637.445312 514.929688 638.632812 515.230469 L 640.066406 518.445312 C 640.019531 518 638.445312 517.324219 636.550781 516.8125 C 635.609375 516.570312 634.589844 516.25 633.609375 516.085938 C 633.121094 516.003906 632.648438 515.9375 632.207031 515.910156 C 631.765625 515.878906 631.074219 515.804688 630.625 515.816406 C 630.992188 515.816406 631.386719 515.84375 631.8125 515.910156 C 632.207031 515.957031 632.480469 516.003906 632.847656 516.085938 C 633.535156 516.238281 634.296875 516.492188 635.109375 516.792969 C 636.730469 517.398438 638.605469 518.019531 640.5 518.671875 C 644.296875 519.839844 648.367188 520.488281 650.714844 518.558594 C 650.714844 518.558594 648.980469 517.992188 647.265625 517.417969 C 645.578125 516.746094 643.890625 516.085938 643.890625 516.085938 C 647.453125 515.683594 651.382812 514.777344 655.367188 513.730469 C 657.367188 513.195312 659.390625 512.742188 661.4375 512.457031 L 662.972656 512.28125 L 664.507812 511.996094 C 665.535156 511.835938 666.574219 511.722656 667.628906 511.6875 C 665.535156 510.527344 665.101562 510.6875 664.367188 510.816406 C 664 510.882812 663.566406 510.949219 662.851562 510.835938 C 662.125 510.675781 661.097656 510.273438 659.601562 509.488281 C 662.277344 511.429688 657.007812 511.796875 652.078125 511.828125 C 647.179688 511.789062 642.636719 511.167969 646.585938 513.824219 C 645.117188 512.695312 643.769531 511.976562 642.429688 511.460938 C 641.113281 510.855469 639.792969 510.46875 638.417969 510.09375 C 637.039062 509.761719 635.65625 509.207031 634.15625 508.59375 C 633.929688 508.5 633.855469 508.453125 633.515625 508.320312 C 633.113281 508.179688 632.714844 508.027344 632.308594 507.878906 C 631.492188 507.574219 630.640625 507.265625 629.832031 506.8125 C 628.171875 505.984375 626.394531 505.03125 624.433594 503.925781 C 624.726562 504.539062 626.074219 505.484375 625.703125 505.660156 C 625.527344 505.757812 624.921875 505.652344 623.546875 505.226562 C 622.867188 505.019531 622 504.730469 620.890625 504.34375 C 619.722656 503.777344 618.296875 503.105469 616.59375 502.289062 C 616.074219 502.363281 614.792969 502.183594 613.992188 502.0625 C 613.578125 501.84375 613.425781 501.757812 613.070312 501.570312 C 613.351562 501.742188 613.566406 501.871094 613.851562 502.042969 C 613.351562 501.984375 613.3125 502.003906 614.144531 502.222656 C 617.46875 504.152344 620.070312 505.832031 621.144531 506.878906 C 618.824219 506.792969 614.527344 505.625 609.988281 504.003906 C 605.351562 502.410156 600.789062 500.515625 597.546875 499.355469 L 597.492188 499.5625 L 597.566406 499.957031 C 597.625 500.230469 597.691406 500.496094 597.738281 500.75 C 597.859375 501.269531 597.972656 501.757812 598.078125 502.222656 C 598.300781 503.15625 598.519531 503.984375 598.726562 504.730469 C 598.914062 507.71875 598.492188 506.679688 597.90625 505.066406 C 597.324219 503.476562 596.597656 501.25 596.238281 502.464844 L 599.582031 514.175781 C 598.367188 513.449219 597.898438 517.539062 597.378906 519.820312 C 596.832031 522 596.230469 522.261719 594.289062 511.636719 C 594.289062 511.636719 594.816406 516.144531 595.34375 520.660156 C 595.484375 521.78125 595.605469 522.921875 595.738281 523.976562 C 595.804688 524.507812 595.863281 525.015625 595.917969 525.503906 C 595.9375 525.96875 595.917969 526.371094 595.917969 526.769531 C 595.910156 528.3125 595.898438 529.351562 595.898438 529.351562 C 595.589844 531.6875 595.316406 534.335938 595.117188 537.148438 C 594.796875 538.683594 594.757812 540.070312 594.371094 541.503906 C 593.761719 544.339844 593.457031 547.09375 593.589844 549.308594 C 592.113281 553.039062 593.363281 559.867188 592.59375 555.960938 C 592.59375 555.960938 592.46875 556.8125 592.28125 558.074219 C 591.960938 559.320312 591.535156 560.96875 591.113281 562.609375 C 590.667969 564.265625 590.292969 565.953125 589.90625 567.191406 C 589.464844 568.394531 589.160156 569.199219 589.160156 569.199219 L 588.617188 569.09375 C 587.851562 570.59375 587.144531 572.128906 586.46875 573.703125 C 585.863281 575.324219 584.902344 576.757812 584.148438 578.339844 C 583.339844 579.886719 582.613281 581.507812 581.738281 583.074219 C 580.777344 584.582031 579.804688 586.101562 578.816406 587.625 L 577.296875 589.917969 C 576.761719 590.664062 576.109375 591.332031 575.515625 592.039062 C 574.292969 593.425781 573.011719 594.800781 571.683594 596.128906 C 570.34375 597.457031 568.714844 598.515625 567.160156 599.628906 C 565.539062 600.683594 563.972656 601.8125 562.070312 602.503906 C 560.421875 604.058594 558.773438 605.714844 556.679688 607.441406 C 554.429688 608.921875 551.855469 610.675781 548.359375 612.230469 L 546.171875 611.183594 C 544.957031 611.949219 543.328125 612.703125 541.554688 613.4375 C 539.8125 614.21875 537.738281 614.558594 535.902344 615.132812 C 532.21875 616.332031 528.824219 616.878906 527.875 618.148438 C 526.054688 617.265625 523.578125 617.40625 520.542969 617.367188 C 519.042969 617.40625 517.441406 617.566406 515.765625 617.800781 C 515.351562 617.867188 514.917969 617.925781 514.492188 617.988281 L 513.183594 618.054688 C 512.296875 618.113281 511.402344 618.179688 510.496094 618.246094 C 503.316406 619.1875 495.421875 619.035156 490.652344 617.746094 L 489.863281 620.09375 C 483.046875 618.707031 476.414062 617.6875 467.980469 615 L 467.585938 617.207031 C 465.664062 616.773438 463.597656 615.90625 461.433594 614.785156 C 459.367188 613.464844 457.097656 612.097656 454.96875 610.277344 C 450.546875 606.855469 446.34375 602.417969 441.824219 598.410156 C 442.953125 598.421875 445.128906 600.523438 446.429688 602.371094 C 444.835938 599.628906 442.859375 597.375 440.851562 595.09375 L 439.050781 593.246094 L 438.550781 592.707031 L 438.203125 592.273438 L 437.515625 591.433594 L 436.113281 589.746094 L 433.304688 586.476562 L 431.898438 584.875 C 431.429688 584.363281 430.957031 583.835938 430.535156 583.167969 C 427.039062 578.132812 423.625 573.609375 420.515625 569.027344 C 417.273438 564.398438 414.804688 560.515625 412.140625 555.800781 C 410.585938 559.882812 409.058594 563.511719 407.332031 566.425781 C 405.335938 573.9375 403.640625 577.671875 401.640625 581.253906 C 401.878906 580.726562 402.046875 580.171875 402.179688 579.632812 C 401.914062 580.21875 401.539062 581.105469 401.144531 582.007812 C 399.8125 584.082031 398.371094 586.289062 396.855469 588.9375 C 398.304688 586.890625 399.597656 585.035156 400.597656 583.28125 C 399.636719 585.503906 398.457031 588.382812 397.222656 591.511719 C 396.65625 593.160156 395.875 594.546875 395.101562 595.980469 C 394.726562 596.695312 394.347656 597.429688 393.972656 598.15625 L 393.40625 599.25 L 393.066406 599.949219 L 390.277344 599.964844 C 390.144531 600.230469 390.023438 600.445312 389.871094 600.71875 C 387.019531 603.078125 388.957031 603.707031 391.597656 603.179688 C 390.730469 604.90625 390.015625 606.582031 389.609375 608.035156 C 387.28125 608.121094 385.792969 610.054688 384.246094 612.230469 C 382.777344 614.445312 380.75 616.445312 377.960938 616.40625 C 377.765625 618.066406 374.335938 621.375 370.914062 624.722656 C 369.132812 626.296875 367.4375 628.019531 366.109375 629.5 C 364.75 630.921875 363.855469 632.289062 363.914062 633.449219 C 363.515625 633.054688 362.394531 633.414062 364.222656 632.320312 C 362.207031 633.234375 360.21875 634.128906 358.257812 634.957031 C 356.308594 635.796875 354.574219 636.976562 352.953125 638.183594 L 350.125 636.097656 C 350.125 636.097656 348.269531 637.871094 346.414062 639.644531 C 344.40625 641.265625 342.398438 642.886719 342.398438 642.886719 C 339.347656 642.921875 337.167969 642.554688 336.40625 641.933594 C 335.652344 641.292969 336.320312 640.351562 338.753906 638.625 C 335.699219 640.207031 333.4375 641.160156 331.683594 641.894531 C 329.902344 642.527344 328.605469 642.800781 327.371094 643.132812 C 326.125 643.433594 324.957031 643.78125 323.375 644.273438 C 321.773438 644.667969 319.765625 645.261719 316.777344 646.261719 L 317.324219 644.328125 C 316.804688 644.355469 316.242188 644.433594 315.65625 644.527344 C 315.0625 644.582031 314.441406 644.648438 313.808594 644.722656 C 312.539062 644.914062 311.199219 645.101562 309.925781 645.289062 C 308.636719 645.429688 307.390625 645.621094 306.328125 645.507812 C 305.273438 645.382812 304.386719 645.128906 303.792969 644.640625 C 299.296875 642.441406 287.941406 640.285156 275.824219 634.675781 C 263.714844 629.179688 251.550781 619.394531 245.171875 609.394531 C 244.671875 612.898438 243.078125 610.582031 241.65625 607.28125 C 240.902344 605.667969 240.082031 603.925781 239.199219 602.699219 C 238.433594 601.390625 237.558594 600.605469 236.519531 601.011719 C 236.859375 599.097656 235.75 596.015625 238.765625 598.535156 C 237.820312 597.382812 236.984375 596.269531 236.238281 595.195312 C 235.578125 594.074219 235.023438 592.972656 234.496094 591.925781 C 233.46875 589.824219 232.574219 587.917969 231.980469 586.023438 C 231.308594 584.15625 230.613281 582.441406 229.652344 580.792969 C 228.511719 577.605469 227.117188 574.429688 225.34375 571.707031 C 225.589844 570.082031 226.308594 570.773438 226.996094 571.640625 C 227.691406 572.496094 228.34375 573.515625 228.371094 572.167969 C 227.644531 570.535156 225.410156 566.3125 225.609375 563.351562 C 225.730469 560.363281 227.203125 565.503906 228.804688 568.679688 C 227.285156 563.777344 226.316406 559.921875 225.242188 557.152344 C 224.214844 554.371094 223.300781 552.625 222.460938 551.683594 C 216.589844 555.699219 214.632812 558.933594 212.851562 561.984375 C 210.984375 562.242188 209.203125 562.589844 207.515625 563.050781 C 206.679688 563.277344 205.859375 563.542969 205.066406 563.804688 C 204.265625 564.023438 203.492188 564.277344 202.730469 564.550781 C 201.222656 565.097656 199.789062 565.777344 198.414062 566.578125 C 197.726562 566.972656 197.058594 567.40625 196.386719 567.859375 C 196.066406 568.085938 195.699219 568.339844 195.425781 568.566406 C 195.183594 568.78125 194.945312 569.007812 194.691406 569.226562 C 193.457031 568.941406 191.867188 568.6875 191.527344 568.140625 C 191.355469 567.898438 191.507812 567.625 192.167969 567.304688 C 192.488281 567.105469 192.941406 566.886719 193.53125 566.632812 C 194.164062 566.371094 194.691406 566.171875 196.265625 565.597656 C 195.871094 565.710938 195.378906 565.851562 194.796875 566.003906 C 194.410156 566.097656 193.957031 566.199219 193.449219 566.304688 C 192.457031 566.578125 191.242188 566.738281 189.894531 566.859375 C 187.199219 567.113281 184.042969 567.652344 181 567.933594 C 177.9375 568.066406 174.996094 568.300781 172.800781 568.707031 C 171.699219 568.941406 170.765625 569.085938 170.105469 569.28125 C 169.4375 569.5 169.023438 569.792969 168.957031 570.167969 C 167.609375 569.3125 162.824219 569.632812 161.617188 569.933594 C 156.726562 569.054688 154.058594 568.621094 151.449219 568.066406 C 148.894531 567.285156 146.296875 566.792969 141.601562 565.503906 C 141.601562 565.503906 142.195312 565.878906 142.800781 566.199219 C 143.421875 566.484375 144.042969 566.773438 144.042969 566.773438 C 141.613281 568.179688 139.625 567.445312 137.25 566.425781 C 136.089844 565.859375 134.816406 565.238281 133.375 564.53125 C 131.972656 563.769531 130.445312 562.863281 128.589844 562.109375 L 128.964844 561.863281 C 127.070312 560.542969 125.480469 559.65625 124.292969 558.726562 C 123.105469 557.820312 122.164062 557.152344 121.371094 556.640625 C 119.816406 555.640625 118.910156 555.265625 118.007812 554.878906 C 117.09375 554.53125 116.265625 554.050781 114.851562 552.851562 C 114.152344 552.265625 113.304688 551.503906 112.25 550.476562 C 111.203125 549.429688 109.875 548.234375 108.535156 546.386719 L 107.753906 548.796875 C 106.644531 549.46875 105.445312 548.96875 104.136719 547.761719 C 103.484375 547.15625 102.796875 546.386719 102.101562 545.488281 C 101.375 544.621094 100.667969 543.59375 100.039062 542.425781 C 98.726562 540.105469 97.265625 537.628906 95.738281 535.234375 C 94.363281 532.714844 92.800781 530.386719 90.847656 528.578125 L 92.035156 532.378906 C 90.847656 531.460938 89.90625 529.984375 89.351562 528.117188 C 88.859375 526.203125 88.605469 524.015625 88.445312 521.847656 C 88.378906 520.773438 88.316406 519.699219 88.25 518.632812 C 88.269531 517.566406 88.285156 516.519531 88.296875 515.511719 C 88.304688 513.523438 88.191406 511.816406 87.75 510.554688 C 87.644531 509.328125 89.191406 511.921875 90.171875 513.222656 C 88.398438 506.445312 87.949219 506.226562 86.710938 506.679688 C 85.574219 507.105469 84.195312 508.167969 82.011719 503.238281 C 82.445312 502.050781 83.648438 502.324219 84.480469 502.03125 C 85.335938 501.730469 85.601562 500.957031 84.96875 497.554688 C 85.082031 496.640625 84.507812 495.074219 83.574219 493.039062 C 83.058594 492.039062 82.625 490.882812 82.191406 489.628906 C 81.726562 488.363281 81.238281 487.007812 80.738281 485.613281 C 79.578125 482.8125 79.15625 479.664062 78.789062 476.648438 C 78.335938 473.628906 78.777344 470.71875 79.664062 468.351562 C 78.308594 470.386719 76.941406 472.59375 76.226562 467.492188 C 76.226562 466.523438 76.289062 465.464844 76.441406 464.363281 C 76.6875 463.269531 77.007812 462.121094 77.363281 460.941406 C 78.101562 458.605469 78.75 456.105469 79.816406 453.75 C 80.8125 451.382812 81.472656 449 82.125 446.8125 C 82.785156 444.625 83.039062 442.523438 82.652344 440.53125 C 83.28125 439.722656 83.707031 439.496094 84.027344 439.582031 C 84.367188 438.15625 84.933594 436.320312 85.554688 434.285156 C 85.882812 433.273438 86.148438 432.171875 86.570312 431.132812 C 86.996094 430.078125 87.417969 429.023438 87.851562 427.96875 C 89.371094 423.667969 91.3125 419.859375 91.425781 417.703125 C 96.136719 417.570312 100.914062 410.046875 106.40625 403.390625 C 107.859375 401.800781 109.273438 400.234375 110.582031 398.792969 C 111.902344 397.339844 113.371094 396.304688 114.585938 395.390625 C 117.074219 393.636719 119.003906 393.003906 120.003906 394.625 C 120.003906 394.625 120.957031 394.023438 122.378906 393.125 C 123.832031 392.277344 125.648438 390.929688 127.65625 389.921875 C 129.652344 388.894531 131.660156 387.867188 133.160156 387.09375 C 133.894531 386.679688 134.554688 386.414062 135.023438 386.234375 C 135.488281 386.054688 135.75 385.953125 135.75 385.953125 L 135.589844 386.808594 C 136.964844 386.367188 138.21875 385.914062 139.371094 385.480469 C 139.933594 385.253906 140.472656 385.027344 141 384.820312 C 141.261719 384.71875 141.507812 384.605469 141.761719 384.5 C 142.0625 384.398438 142.128906 384.292969 142.640625 384.171875 C 145.984375 383.246094 148.660156 382.371094 150.828125 381.542969 C 155.152344 379.777344 157.5 378.535156 159.507812 377.261719 C 164 376.960938 161.964844 378.023438 162.003906 378.410156 C 164.625 378.070312 167.015625 377.761719 169.03125 377.496094 C 165.96875 368.203125 163.597656 361.792969 161.109375 355.910156 C 160.550781 354.4375 159.96875 352.996094 159.335938 351.527344 C 159.175781 351.167969 159.015625 350.800781 158.855469 350.433594 L 158.480469 349.699219 C 158.226562 349.199219 157.960938 348.6875 157.679688 348.160156 C 156.621094 345.992188 155.398438 343.53125 153.878906 340.441406 L 155.964844 338.46875 C 154.925781 336.660156 154.644531 330.242188 154.890625 322.324219 C 155.050781 314.375 155.71875 305.007812 155.226562 296.4375 C 155.472656 296.636719 155.878906 297.03125 156.125 298.398438 C 155.546875 288.765625 159.410156 277.6875 163.332031 268.75 C 167.148438 259.703125 170.804688 252.519531 168.503906 247.417969 C 168.503906 247.417969 168.742188 246.65625 169.109375 245.503906 C 169.496094 244.355469 169.910156 242.78125 170.511719 241.28125 C 171.070312 239.753906 171.632812 238.226562 172.058594 237.085938 C 172.472656 235.925781 172.800781 235.183594 172.800781 235.183594 C 168.316406 242.207031 167.808594 241.273438 167.828125 239.121094 C 167.847656 236.992188 168.457031 233.65625 166.066406 236.371094 C 168.957031 230.082031 177.664062 223.125 173.441406 230.195312 L 172.386719 231.042969 C 173.488281 233.515625 176.582031 229.328125 180 225.050781 C 181.707031 222.898438 183.5625 220.769531 185.015625 219.242188 C 186.542969 217.78125 187.777344 217.007812 188.273438 217.59375 C 198.695312 205.195312 211.625 195.335938 225.355469 187.992188 C 232.214844 184.277344 239.320312 181.222656 246.519531 178.765625 C 253.726562 176.292969 260.972656 174.265625 268.269531 172.804688 L 264.113281 170.136719 C 264.113281 170.136719 266.714844 169.554688 269.332031 169.09375 C 271.953125 168.667969 274.570312 168.253906 274.570312 168.253906 C 276.003906 168.394531 277.039062 169.007812 276.765625 169.601562 C 276.484375 170.175781 274.957031 170.921875 271.28125 171.503906 C 275.402344 172.65625 283.382812 168.019531 283.609375 167.253906 C 291.054688 167.40625 289.628906 168.546875 287.019531 169.609375 C 285.71875 170.148438 284.109375 170.636719 283.109375 171.023438 C 282.109375 171.441406 281.714844 171.675781 282.808594 171.550781 C 282.808594 171.550781 283.175781 171.476562 283.730469 171.421875 C 284.296875 171.34375 285.039062 171.261719 285.785156 171.167969 C 287.285156 170.996094 288.773438 170.816406 288.773438 170.816406 L 287.386719 170.507812 C 289.769531 169.574219 291.070312 168.753906 292.917969 168.195312 C 294.757812 167.648438 297.128906 167.09375 301.652344 167.40625 C 307.355469 168.28125 304.488281 169.65625 306.714844 169.863281 C 306.6875 170.121094 307.421875 170.308594 310.085938 170.289062 C 310.085938 170.289062 310.90625 170.382812 312.121094 170.523438 C 313.339844 170.695312 314.96875 170.769531 316.570312 171.109375 C 319.792969 171.683594 323.007812 172.25 323.007812 172.25 L 318.230469 168.707031 C 324.296875 168.09375 330.5625 171.167969 325.089844 166.726562 C 326.097656 167.566406 327.613281 168.394531 329.480469 169.195312 C 331.363281 169.96875 333.609375 170.742188 336.039062 171.703125 C 338.46875 172.628906 341.175781 173.417969 343.886719 174.53125 C 346.621094 175.570312 349.484375 176.53125 352.21875 177.753906 C 363.320312 182.261719 373.496094 187.90625 375.332031 190.152344 C 379.414062 191.433594 382.992188 193.5625 386.6875 195.949219 C 390.210938 198.550781 393.800781 201.472656 397.402344 205.101562 C 395.902344 203 396.941406 199.484375 403.179688 206.027344 C 399.757812 207.175781 402.140625 210.53125 405.363281 214.71875 C 406.390625 216.101562 407.464844 217.574219 408.558594 219.054688 C 409.800781 220.789062 411.121094 222.476562 412.261719 224.359375 C 414.589844 228.074219 416.71875 231.902344 418.1875 235.71875 C 417.492188 234.191406 417.398438 233.570312 417.691406 233.5625 C 417.839844 233.5625 418.085938 233.703125 418.40625 233.976562 C 418.585938 234.0625 418.734375 234.382812 418.980469 234.363281 C 419.253906 234.164062 419.566406 233.949219 419.886719 233.703125 C 422.503906 231.875 426.511719 229.414062 430.308594 227.027344 C 438.910156 222.0625 442.125 220.0625 436.996094 220.101562 C 440.410156 218.695312 440.785156 219.289062 440.972656 219.988281 C 441.164062 220.695312 441.21875 221.597656 444.027344 221.277344 C 451.347656 216.707031 460.707031 214.351562 470.507812 213.226562 C 480.351562 212.152344 490.679688 212.097656 501.113281 212.578125 C 501.519531 211.746094 498.011719 210.285156 502.6875 209.242188 C 502.6875 209.242188 503.363281 209.53125 504.390625 209.976562 C 505.410156 210.429688 506.738281 211.21875 508.058594 211.925781 C 510.640625 213.359375 513.222656 214.785156 513.222656 214.785156 C 517.3125 214.859375 517.933594 210.683594 524.71875 215.226562 C 523.851562 214.292969 522.523438 212.871094 525.339844 213.257812 C 527.855469 214 530.257812 215.121094 532.679688 216.121094 C 535.09375 217.167969 537.597656 217.96875 539.964844 219.109375 C 544.675781 221.449219 549.558594 223.425781 554.078125 226.171875 C 558.808594 228.535156 563.136719 231.589844 567.621094 234.457031 C 569.84375 235.917969 571.851562 237.679688 573.980469 239.273438 L 577.148438 241.726562 C 578.183594 242.5625 579.117188 243.523438 580.105469 244.429688 C 582.046875 246.257812 584.027344 248.058594 585.9375 249.933594 L 591.226562 255.988281 C 593.0625 257.9375 594.550781 260.183594 596.070312 262.378906 L 598.339844 265.679688 C 599.101562 266.78125 599.847656 267.882812 600.441406 269.089844 C 601.703125 271.445312 602.9375 273.804688 604.144531 276.167969 C 604.785156 277.328125 605.257812 278.582031 605.71875 279.828125 L 607.09375 283.558594 C 609.09375 288.453125 609.941406 293.761719 610.902344 298.839844 C 610.695312 295.976562 610.957031 295.371094 611.464844 296.011719 C 611.929688 296.664062 612.871094 298.484375 613.378906 300.585938 C 613.011719 297.746094 615.394531 300.019531 616.347656 299.140625 C 616.347656 299.140625 616.441406 300.28125 616.601562 301.988281 C 616.675781 302.835938 616.773438 303.828125 616.867188 304.875 C 616.894531 305.167969 616.914062 305.449219 616.941406 305.742188 C 616.996094 306.148438 617.035156 306.5625 617.09375 306.976562 C 617.195312 307.816406 617.300781 308.671875 617.402344 309.53125 C 617.894531 313.007812 617.921875 316.628906 618.175781 319.4375 C 618.382812 322.285156 618.515625 324.1875 618.515625 324.1875 C 618.984375 324.472656 619.417969 325.160156 619.835938 326.132812 C 620.042969 326.621094 620.238281 327.1875 620.429688 327.800781 C 620.523438 328.109375 620.617188 328.441406 620.71875 328.78125 C 620.824219 329.101562 620.84375 329.554688 621.125 329.628906 C 625.714844 328.269531 631.085938 327.140625 635.871094 326.160156 C 637.050781 325.90625 638.179688 325.640625 639.226562 325.375 C 640.253906 325.179688 641.195312 324.992188 642.007812 324.773438 C 642.828125 324.566406 643.523438 324.339844 644.050781 324.074219 C 644.558594 323.839844 644.730469 323.59375 644.898438 323.292969 C 644.898438 323.292969 643.082031 323.632812 641.253906 323.972656 C 640.261719 324.160156 639.273438 324.332031 638.511719 324.566406 C 637.738281 324.765625 637.230469 324.894531 637.230469 324.894531 C 640.085938 323.398438 640.386719 322.492188 639.71875 321.550781 C 639.019531 320.664062 637.359375 319.917969 635.871094 319.050781 C 634.363281 318.136719 633 317.410156 632.421875 316.460938 C 631.828125 315.515625 632 314.375 633.007812 313.019531 C 632.613281 313.300781 632.207031 313.535156 631.800781 313.761719 C 631.480469 314.007812 631.472656 313.773438 631.367188 313.660156 L 631.132812 313.207031 C 630.992188 312.886719 630.878906 312.492188 630.785156 312.046875 C 630.605469 311.171875 630.53125 310.105469 630.511719 308.992188 C 630.5 306.75 630.773438 304.316406 630.792969 302.355469 L 630.800781 301.988281 L 630.753906 301.375 L 630.625 300.105469 C 630.519531 299.238281 630.417969 298.378906 630.285156 297.511719 C 629.972656 295.796875 629.777344 293.996094 629.097656 292.328125 C 627.863281 288.960938 626.109375 285.664062 623.546875 282.816406 C 623.171875 279.308594 625.960938 284.925781 626.28125 282.835938 C 624.753906 281.34375 623.160156 279.703125 621.792969 277.328125 C 621.097656 276.140625 620.410156 274.792969 619.710938 273.21875 C 619.035156 271.636719 618.328125 269.855469 617.355469 267.902344 L 618.289062 268.507812 C 615.027344 263.320312 612.523438 258.710938 609.636719 254.789062 C 608.28125 252.761719 606.980469 250.820312 605.707031 248.90625 C 604.351562 247.050781 602.9375 245.277344 601.554688 243.441406 C 600.148438 241.628906 598.8125 239.71875 597.265625 237.871094 C 595.644531 236.070312 593.988281 234.203125 592.207031 232.230469 C 591.308594 231.25 590.394531 230.242188 589.445312 229.1875 C 588.464844 228.179688 587.363281 227.234375 586.257812 226.207031 C 584.015625 224.191406 581.671875 221.949219 578.957031 219.722656 C 578.957031 219.722656 579.058594 220.46875 579.125 221.242188 C 579.183594 222.023438 579.238281 222.804688 579.238281 222.804688 C 574.640625 219.0625 573.90625 217.894531 571.917969 215.8125 C 568.140625 215.359375 571.589844 217.734375 575.035156 220.175781 C 578.589844 222.503906 581.671875 225.511719 578.164062 225.050781 C 577.441406 222.804688 574.699219 220.488281 571.277344 217.742188 C 567.921875 214.894531 563.324219 212.550781 558.921875 210.03125 C 556.746094 208.710938 554.429688 207.730469 552.28125 206.695312 C 550.113281 205.667969 548.085938 204.648438 546.285156 203.660156 C 542.679688 201.746094 539.859375 200.257812 539.011719 198.511719 C 530.210938 195.5625 540.765625 201.851562 532.046875 198.984375 L 530.050781 197.042969 L 527.347656 198.285156 C 521.617188 196.609375 518.96875 194.167969 518.921875 193.035156 C 520.382812 193.300781 523.117188 193.601562 524.699219 193.820312 C 521.03125 191.894531 515.371094 191.386719 510.421875 190.972656 C 509.1875 190.878906 507.992188 190.792969 506.871094 190.707031 C 505.738281 190.726562 504.691406 190.734375 503.761719 190.746094 C 501.894531 190.765625 500.480469 190.734375 499.800781 190.566406 C 499.800781 190.566406 508.699219 191.828125 508.660156 192.054688 C 507.085938 191.867188 505.476562 191.859375 503.84375 191.859375 C 502.222656 191.828125 500.585938 191.800781 498.925781 191.773438 C 495.609375 191.6875 492.246094 191.546875 488.835938 191.800781 C 485.421875 191.953125 481.972656 192.007812 478.523438 192.480469 C 475.078125 192.855469 471.597656 193.167969 468.179688 193.894531 C 454.46875 196.261719 441.230469 200.992188 430.96875 207.515625 L 433.066406 207.695312 C 432.578125 207.996094 432.105469 208.289062 431.664062 208.570312 C 431.4375 208.710938 431.222656 208.84375 431.003906 208.976562 L 430.636719 209.230469 C 430.148438 209.5625 429.683594 209.863281 429.261719 210.144531 C 428.375 210.671875 427.640625 211.125 426.972656 211.523438 C 425.652344 212.277344 424.691406 212.632812 423.769531 212.917969 L 423.417969 213.03125 C 423.324219 213.011719 423.164062 213.21875 423.109375 212.984375 C 422.949219 212.691406 422.789062 212.390625 422.617188 212.078125 C 422.277344 211.464844 421.910156 210.84375 421.488281 210.171875 C 421.042969 209.503906 420.59375 208.777344 419.921875 208.015625 C 419.582031 207.628906 419.207031 207.234375 418.8125 206.789062 C 418.292969 206.253906 417.738281 205.675781 417.144531 205.054688 L 417.8125 205.433594 C 416.136719 204.234375 414.222656 202.839844 412.28125 201.226562 C 410.359375 199.617188 408.457031 197.722656 406.457031 195.882812 C 411.066406 198.398438 401.105469 187.632812 406.949219 191.101562 C 404.941406 189.578125 403.261719 188.417969 401.820312 187.539062 C 400.40625 186.644531 399.304688 185.957031 398.402344 185.429688 C 396.609375 184.371094 395.660156 183.949219 394.800781 183.75 C 393.105469 183.355469 391.945312 183.523438 385.574219 181.488281 L 384.066406 178.394531 C 381.777344 177.878906 380.460938 177.773438 378.640625 177.171875 C 376.792969 176.644531 374.410156 175.710938 370.066406 173.53125 C 377.832031 176.105469 365.816406 168.046875 374.730469 170.695312 C 366.390625 163.9375 358.550781 161.769531 352.3125 160.355469 C 346.035156 158.84375 341.210938 158.167969 337.226562 154.074219 C 331.902344 155.453125 336.253906 156.980469 340.996094 158.628906 C 345.820312 160.050781 351.078125 161.796875 348.402344 161.371094 C 350.25 162.871094 348.082031 163.097656 344.785156 162.652344 C 341.410156 162.410156 336.90625 161.4375 333.851562 160.503906 C 330.675781 159.824219 328.359375 157.496094 324.589844 155.367188 C 322.703125 154.292969 320.480469 153.160156 317.664062 152.152344 C 314.828125 151.324219 311.386719 150.585938 307.148438 150.304688 C 308.835938 150.398438 308.976562 150.097656 310.652344 150.25 C 307.535156 149.238281 304.359375 149.71875 301.070312 149.910156 C 297.761719 150.058594 294.324219 150.484375 290.363281 149.53125 C 286.199219 152.773438 280.214844 150.058594 279.394531 154.09375 C 279.394531 154.09375 280.347656 153.925781 281.761719 153.660156 C 283.183594 153.472656 285.089844 153.21875 286.992188 152.964844 C 288.894531 152.671875 290.808594 152.492188 292.238281 152.386719 C 293.671875 152.265625 294.644531 152.191406 294.644531 152.191406 C 290.28125 152.726562 286.164062 154.425781 281.441406 155.808594 C 279.09375 156.601562 276.578125 157.28125 273.769531 157.808594 C 271 158.476562 267.882812 158.761719 264.339844 159.054688 C 265.222656 157.976562 269.183594 156.261719 271.972656 155.1875 C 269.832031 155.007812 267.863281 155.546875 265.902344 156.082031 C 263.953125 156.714844 262 157.347656 259.757812 157.269531 C 259.898438 155.339844 264.421875 153.859375 270.097656 152.859375 C 275.742188 151.726562 282.449219 151.050781 287.105469 149.296875 C 282.289062 147.816406 269.566406 154.066406 273.742188 149.316406 C 272.207031 150.832031 270.445312 151.832031 268.4375 152.425781 C 267.4375 152.726562 266.390625 152.945312 265.289062 153.132812 C 264.1875 153.351562 263.046875 153.546875 261.871094 153.734375 C 259.496094 154.121094 256.96875 154.460938 254.433594 155.328125 C 251.890625 156.140625 249.308594 157.242188 246.925781 159.164062 L 246.925781 156.742188 C 245.292969 157.6875 242.042969 159.855469 238.941406 161.089844 C 238.941406 161.089844 240.09375 159.84375 241.25 158.589844 C 242.421875 157.355469 243.65625 156.175781 243.65625 156.175781 C 241.601562 157.496094 239.519531 158.542969 237.371094 159.328125 C 235.191406 160.070312 232.976562 160.65625 230.792969 161.296875 C 226.355469 162.464844 221.953125 163.804688 218.230469 166.566406 C 226.691406 162.042969 228.023438 162.351562 228.125 163.285156 C 228.230469 164.238281 227.222656 165.925781 231.160156 165.058594 C 221.417969 171.289062 218.089844 171.855469 213.953125 172.164062 C 209.996094 172.675781 205.140625 172.910156 194.964844 181.488281 C 197.527344 178.878906 206.613281 174.664062 202.664062 178.746094 C 200.488281 179.988281 197.960938 181.449219 195.644531 182.789062 C 193.25 184.0625 191.09375 185.269531 189.527344 185.824219 C 176.835938 197.910156 193.035156 185.738281 188.464844 191.753906 C 185.402344 192.753906 184.035156 194.441406 182.886719 196.570312 C 181.800781 198.785156 180.90625 201.417969 178.730469 204.441406 L 176.957031 202.925781 C 169.898438 209.816406 170.25 211.804688 170.476562 213.285156 C 170.757812 214.839844 171.117188 216.066406 165.414062 222.636719 L 167.0625 214.734375 C 167.0625 214.734375 165.894531 216.734375 164.726562 218.734375 C 163.539062 220.703125 162.492188 222.757812 162.492188 222.757812 L 161.316406 219.683594 C 159.394531 224.503906 157.90625 227.433594 156.347656 230.320312 C 154.691406 233.136719 152.9375 235.871094 150.367188 240.121094 C 152.871094 238.8125 153.476562 243.101562 150.234375 250.953125 C 146.871094 255.894531 149.28125 247.011719 145.332031 258.597656 C 144.796875 255.507812 144.289062 251.933594 148.285156 247.765625 C 147.8125 246.976562 148.074219 244.675781 147.632812 243.847656 C 145.503906 246.4375 143.929688 250.238281 142.648438 253.855469 C 141.433594 257.503906 140.605469 261.011719 139.925781 263.171875 C 140.507812 261.53125 141.339844 259.605469 141.980469 258.691406 C 141.980469 258.691406 141.226562 263.226562 140.867188 267.769531 C 140.605469 270.03125 140.445312 272.285156 140.394531 273.992188 C 140.3125 275.679688 140.265625 276.8125 140.265625 276.8125 C 138.785156 279.347656 138.585938 277.046875 138.417969 274.71875 C 137.785156 278.320312 138.417969 281.015625 137.703125 286.265625 C 136.097656 284.597656 134.015625 284.636719 134.628906 276.867188 C 134.628906 276.867188 134.480469 277.953125 134.414062 279.601562 C 134.320312 281.242188 134.195312 283.429688 134.074219 285.617188 C 133.949219 289.988281 133.980469 294.324219 133.980469 294.324219 C 133.019531 295.363281 131.03125 303.027344 130.503906 300.726562 C 129.617188 305.550781 130.371094 311.585938 131.492188 317.84375 C 131.933594 320.992188 132.753906 324.1875 133.1875 327.402344 C 133.6875 330.617188 134.207031 333.824219 134.234375 337.039062 C 134.714844 337.632812 135.289062 338.886719 136.035156 341.488281 C 136.390625 344.398438 136.835938 347.226562 137.257812 350.074219 C 137.476562 351.488281 137.625 352.921875 137.945312 354.328125 L 138.164062 355.382812 L 138.277344 355.910156 L 138.324219 356.15625 L 138.324219 356.238281 L 138.359375 356.84375 C 138.492188 358.457031 138.898438 359.332031 141.1875 362.074219 L 141.160156 362.179688 C 141.160156 362.179688 139.445312 361.679688 138.105469 361.105469 C 136.738281 360.546875 135.730469 359.90625 135.730469 359.90625 C 135.316406 360.386719 136.277344 361.234375 137.75 362.019531 C 139.113281 362.921875 140.941406 363.507812 137.617188 365.121094 C 137.03125 365.421875 136.523438 365.621094 136.089844 365.734375 C 135.363281 365.988281 134.441406 366.269531 133.921875 366.335938 C 132.773438 366.515625 132.300781 366.242188 132.046875 365.808594 C 131.558594 364.960938 132 363.480469 129.617188 363.875 C 128.210938 364.902344 126.535156 365.996094 124.726562 367.417969 C 122.925781 368.871094 120.929688 370.40625 118.742188 371.886719 C 118.1875 372.246094 117.628906 372.613281 117.066406 372.980469 C 116.507812 373.386719 115.953125 373.792969 115.386719 374.199219 C 114.246094 375 113.050781 375.773438 111.804688 376.496094 C 110.570312 377.261719 109.214844 377.882812 107.90625 378.617188 C 106.59375 379.355469 105.21875 380.050781 103.777344 380.671875 C 105.238281 379.230469 106.679688 378.089844 108.179688 377.101562 C 109.714844 376.1875 111.25 375.339844 112.824219 374.246094 " fill-opacity="1" fill-rule="nonzero"/><path fill="#3882bb" d="M 199.414062 581.152344 C 198.953125 580.867188 198.734375 580.480469 198.527344 580.074219 C 198.214844 580.378906 197.914062 580.671875 198.132812 580.839844 C 198.207031 580.925781 198.433594 580.980469 198.6875 581.019531 C 198.875 581.074219 199.113281 581.121094 199.414062 581.152344 " fill-opacity="1" fill-rule="nonzero"/><path fill="#3882bb" d="M 134.28125 337.453125 L 134.234375 337.039062 L 133.761719 336.679688 Z M 134.28125 337.453125 " fill-opacity="1" fill-rule="nonzero"/><path fill="#3882bb" d="M 492.980469 643.226562 C 490.484375 642.640625 489.15625 642.039062 488.296875 641.414062 C 488.082031 641.933594 489.125 642.714844 492.980469 643.226562 " fill-opacity="1" fill-rule="nonzero"/><path fill="#3882bb" d="M 648.667969 509.066406 C 648.667969 509.066406 648.273438 509.113281 647.679688 509.101562 C 647.09375 509.113281 646.304688 509.113281 645.523438 509.113281 C 644.730469 509.121094 643.949219 509.132812 643.34375 509.140625 C 642.75 509.160156 642.363281 509.121094 642.363281 509.121094 C 645.398438 509.308594 646.4375 509.886719 647.960938 510.414062 C 647.847656 509.839844 646.707031 509 648.667969 509.066406 " fill-opacity="1" fill-rule="nonzero"/><path fill="#3882bb" d="M 707.960938 507.953125 C 708.703125 507.160156 709.863281 506.753906 710.597656 505.972656 L 709.75 505.226562 C 705.988281 507.585938 703.726562 509.988281 707.960938 507.953125 " fill-opacity="1" fill-rule="nonzero"/><path fill="#3882bb" d="M 654.539062 516.890625 C 655.09375 518.773438 659.449219 518 664.1875 517.246094 C 663.90625 517.304688 663.640625 517.371094 663.351562 517.371094 C 664.441406 514.589844 659.570312 515.710938 654.539062 516.890625 " fill-opacity="1" fill-rule="nonzero"/><path fill="#3882bb" d="M 665.28125 517.011719 C 666.734375 516.699219 668.210938 516.417969 669.652344 516.296875 C 670.023438 515.125 667.863281 516.332031 665.28125 517.011719 " fill-opacity="1" fill-rule="nonzero"/><path fill="#3882bb" d="M 593.507812 498.46875 C 593.5625 495.199219 590.074219 491.964844 590.71875 490.777344 C 588.832031 486.207031 590.8125 495.046875 592.554688 501.015625 C 593.421875 504.023438 594.242188 506.339844 594.550781 506.453125 C 594.863281 506.539062 594.683594 504.53125 593.507812 498.46875 " fill-opacity="1" fill-rule="nonzero"/><path fill="#3882bb" d="M 658.722656 523.128906 L 656.820312 520.800781 L 654.058594 522.894531 Z M 658.722656 523.128906 " fill-opacity="1" fill-rule="nonzero"/><path fill="#3882bb" d="M 618.488281 515.277344 C 618.488281 515.277344 620.652344 516.238281 622.839844 517.210938 C 624.949219 517.992188 627.0625 518.773438 627.0625 518.773438 C 626.9375 518.3125 628.003906 518.367188 629.390625 518.578125 C 626.730469 517.726562 623.894531 516.90625 621.746094 516.050781 C 619.617188 515.21875 618.203125 514.769531 618.488281 515.277344 " fill-opacity="1" fill-rule="nonzero"/><path fill="#3882bb" d="M 629.390625 518.578125 C 630.085938 518.738281 630.785156 518.886719 631.453125 519.039062 C 632.054688 519.152344 632.628906 519.253906 633.175781 519.347656 C 634.269531 519.519531 635.222656 519.640625 635.957031 519.539062 C 635.277344 519.460938 634.214844 519.226562 633.054688 519.058594 C 632.480469 518.972656 631.875 518.886719 631.285156 518.8125 C 630.613281 518.726562 629.972656 518.640625 629.390625 518.578125 " fill-opacity="1" fill-rule="nonzero"/><path fill="#3882bb" d="M 647.605469 523.949219 C 647.605469 523.949219 647.011719 523.808594 646.417969 523.621094 C 645.832031 523.441406 645.238281 523.261719 645.238281 523.261719 C 645.238281 523.261719 643.816406 523.082031 642.394531 522.914062 C 640.960938 522.78125 639.558594 522.480469 639.558594 522.480469 C 639.558594 522.480469 640.054688 522.59375 640.800781 522.769531 C 641.546875 522.941406 642.554688 523.082031 643.5625 523.269531 C 644.570312 523.449219 645.578125 523.628906 646.339844 523.761719 C 647.09375 523.894531 647.605469 523.949219 647.605469 523.949219 " fill-opacity="1" fill-rule="nonzero"/><path fill="#3882bb" d="M 592.488281 582.480469 C 592.488281 582.480469 591.507812 584.421875 590.527344 586.363281 C 590.058594 587.351562 589.546875 588.316406 589.078125 588.992188 C 588.644531 589.683594 588.351562 590.144531 588.351562 590.144531 C 588.425781 590.738281 588.917969 590.632812 589.605469 590.03125 C 589.953125 589.71875 590.347656 589.296875 590.765625 588.757812 C 591.140625 588.203125 591.5 587.523438 591.855469 586.777344 C 592.46875 584.667969 593.875 581.746094 592.488281 582.480469 " fill-opacity="1" fill-rule="nonzero"/><path fill="#3882bb" d="M 609.109375 560.269531 C 607.980469 562.542969 607.507812 562.570312 606.253906 563.617188 L 608.996094 564.796875 C 608.996094 564.796875 609.035156 564.523438 609.0625 564.097656 C 609.121094 563.683594 609.140625 563.117188 609.121094 562.542969 C 609.109375 561.402344 609.109375 560.269531 609.109375 560.269531 " fill-opacity="1" fill-rule="nonzero"/><path fill="#3882bb" d="M 599.3125 585.335938 C 599.582031 586.503906 594.222656 598.277344 600.308594 587.929688 C 600.207031 587.304688 601.222656 584.894531 601.628906 583.535156 C 601.894531 582.09375 601.835938 581.875 599.3125 585.335938 " fill-opacity="1" fill-rule="nonzero"/><path fill="#3882bb" d="M 480.269531 632.621094 L 482.492188 633.140625 L 483.265625 628.253906 C 483.265625 628.253906 482.53125 629.347656 481.796875 630.441406 C 481.03125 631.535156 480.269531 632.621094 480.269531 632.621094 " fill-opacity="1" fill-rule="nonzero"/><path fill="#3882bb" d="M 411.554688 613.777344 C 412 613.191406 412.402344 612.671875 412.769531 612.222656 L 413.035156 611.910156 L 413.195312 611.335938 C 413.195312 610.96875 412.988281 610.617188 412.769531 610.261719 C 412.328125 609.609375 412 608.808594 413.335938 607.867188 C 413.261719 606.839844 412.722656 607.207031 412.128906 607.714844 C 411.546875 608.214844 410.90625 608.847656 410.859375 607.921875 C 410.667969 608.847656 410.414062 609.515625 410.253906 610.070312 L 410.140625 610.457031 C 410.027344 610.710938 409.914062 610.949219 409.8125 611.164062 C 409.59375 611.628906 409.433594 612.03125 409.320312 612.371094 C 408.878906 613.738281 409.320312 614.21875 411.554688 613.777344 " fill-opacity="1" fill-rule="nonzero"/><path fill="#3882bb" d="M 410.859375 607.921875 C 410.960938 607.320312 411.074219 606.640625 411.179688 605.8125 C 410.886719 606.960938 410.839844 607.527344 410.859375 607.921875 " fill-opacity="1" fill-rule="nonzero"/><path fill="#3882bb" d="M 630.304688 331.675781 C 630.304688 331.675781 633.046875 331.351562 635.796875 331.042969 C 638.605469 330.617188 641.421875 330.597656 641.421875 330.597656 C 641.421875 330.597656 640.96875 330.542969 640.292969 330.476562 C 639.621094 330.402344 638.738281 330.289062 637.851562 330.296875 C 636.136719 330.230469 634.429688 330.175781 634.429688 330.175781 L 630.304688 331.675781 " fill-opacity="1" fill-rule="nonzero"/><path fill="#3882bb" d="M 648.226562 325.199219 L 649.808594 328.28125 L 653.417969 325.320312 C 652.015625 325.507812 649.328125 325.875 648.226562 325.199219 " fill-opacity="1" fill-rule="nonzero"/><path fill="#3882bb" d="M 59.40625 516.378906 L 60.320312 516.664062 C 60.667969 515.238281 60.09375 513.523438 58.980469 510.0625 L 59.40625 516.378906 " fill-opacity="1" fill-rule="nonzero"/><path fill="#3882bb" d="M 69.375 414.882812 L 68.441406 416.417969 L 72.503906 414.929688 Z M 69.375 414.882812 " fill-opacity="1" fill-rule="nonzero"/><path fill="#3882bb" d="M 133.433594 358.132812 L 133.308594 358.152344 C 132.875 358.34375 132.433594 358.519531 131.980469 358.699219 C 131.105469 359.085938 130.199219 359.492188 129.296875 359.886719 C 127.496094 360.707031 125.714844 361.527344 124 362.121094 C 127.582031 360.472656 130.785156 360.105469 132.773438 359.792969 C 133.214844 359.738281 133.828125 359.585938 133.921875 359.585938 L 133.96875 359.511719 C 133.949219 359.351562 133.78125 358.945312 133.433594 358.132812 " fill-opacity="1" fill-rule="nonzero"/></svg>